<?xml version="1.0" encoding="utf-8"?>
<!-- Generator: Adobe Illustrator 16.0.0, SVG Export Plug-In . SVG Version: 6.00 Build 0)  -->
<!DOCTYPE svg PUBLIC "-//W3C//DTD SVG 1.1//EN" "http://www.w3.org/Graphics/SVG/1.1/DTD/svg11.dtd">
<svg version="1.1" id="Layer_2" xmlns="http://www.w3.org/2000/svg" xmlns:xlink="http://www.w3.org/1999/xlink" x="0px" y="0px"
	 width="497.134px" height="233.043px" viewBox="0 0 497.134 233.043" enable-background="new 0 0 497.134 233.043"
	 xml:space="preserve">
<g>
	<g>
		<path fill="#0070EA" d="M3.301,32.769h24.07c8.686,0,15.973,4.196,15.973,13.691c0,6.625-3.459,12.072-10.231,13.396v0.147
			c6.846,0.883,8.833,5.594,9.201,11.851c0.221,3.607,0.221,10.82,2.429,13.47h-5.521c-1.251-2.061-1.251-5.962-1.398-8.17
			c-0.442-7.361-1.031-15.532-10.526-15.164H8.306v23.334H3.301V32.769z M8.306,57.722h18.697c6.109,0,11.335-3.828,11.335-10.232
			c0-6.404-3.828-10.452-11.335-10.452H8.306V57.722z"/>
		<path fill="#0070EA" d="M54.235,67.585c0.074,6.772,3.607,14.943,12.513,14.943c6.772,0,10.453-3.975,11.925-9.717h4.637
			c-1.987,8.612-6.993,13.618-16.562,13.618c-12.072,0-17.15-9.274-17.15-20.095c0-10.011,5.079-20.095,17.15-20.095
			c12.219,0,17.077,10.673,16.709,21.346H54.235z M78.82,63.685c-0.221-6.993-4.563-13.544-12.072-13.544
			c-7.582,0-11.777,6.625-12.513,13.544H78.82z"/>
		<path fill="#0070EA" d="M89.27,58.974c0.442-8.907,6.699-12.734,15.384-12.734c6.699,0,13.986,2.061,13.986,12.219v20.169
			c0,1.767,0.883,2.797,2.724,2.797c0.515,0,1.104-0.147,1.472-0.294v3.901c-1.03,0.221-1.767,0.294-3.018,0.294
			c-4.711,0-5.447-2.65-5.447-6.625h-0.147c-3.239,4.932-6.551,7.729-13.838,7.729c-6.993,0-12.734-3.459-12.734-11.115
			c0-10.673,10.379-11.041,20.39-12.219c3.828-0.442,5.962-0.957,5.962-5.153c0-6.257-4.49-7.802-9.937-7.802
			c-5.741,0-10.011,2.649-10.158,8.833H89.27z M114.002,64.567h-0.147c-0.589,1.104-2.65,1.473-3.901,1.693
			c-7.876,1.398-17.666,1.325-17.666,8.759c0,4.637,4.122,7.508,8.465,7.508c7.066,0,13.323-4.49,13.249-11.925V64.567z"/>
		<path fill="#0070EA" d="M154.706,59.268c-1.251-5.667-4.711-9.127-10.747-9.127c-8.907,0-13.323,8.097-13.323,16.193
			c0,8.097,4.417,16.194,13.323,16.194c5.741,0,10.452-4.49,11.041-10.821h4.637c-1.251,9.127-7.213,14.722-15.678,14.722
			c-11.63,0-17.961-9.201-17.961-20.095c0-10.894,6.331-20.095,17.961-20.095c8.097,0,14.354,4.343,15.384,13.028H154.706z"/>
		<path fill="#0070EA" d="M173.473,47.343h7.729v3.901h-7.729V76.86c0,3.018,0.442,4.784,3.754,5.005
			c1.325,0,2.65-0.074,3.975-0.221v3.975c-1.398,0-2.724,0.147-4.122,0.147c-6.183,0-8.318-2.061-8.244-8.538V51.245h-6.625v-3.901
			h6.625V35.934h4.637V47.343z"/>
	</g>
	<g>
		<path fill="#0070EA" d="M39.115,89.787c26.733,0,35.879,14.633,35.879,52.2s-9.146,52.2-35.879,52.2
			c-26.733,0-35.878-14.633-35.878-52.2S12.382,89.787,39.115,89.787z M39.115,176.458c8.02,0,8.864-7.316,8.864-34.472
			s-0.844-34.472-8.864-34.472c-8.02,0-8.864,7.316-8.864,34.472S31.095,176.458,39.115,176.458z"/>
		<path fill="#0070EA" d="M102.853,168.58c0,2.955,0.563,5.769,1.829,7.457c1.267,1.688,3.096,2.674,5.347,2.674
			c3.94,0,7.316-2.393,7.316-6.473c0-13.507-36.723-5.487-36.723-34.331c0-13.367,9.708-23.779,30.25-23.779
			c18.995,0,28.563,8.02,28.563,23.919h-21.949c0-6.472-2.533-8.442-6.754-8.442c-3.799,0-6.472,2.251-6.472,5.91
			c0,12.522,36.723,4.081,36.723,33.206c0,14.773-11.397,25.467-30.532,25.467c-21.246,0-29.829-9.005-29.829-25.607H102.853z"/>
		<path fill="#0070EA" d="M189.665,122.289c0-11.396-2.11-14.773-7.176-14.773c-8.02,0-8.864,7.316-8.864,34.472
			s0.844,34.472,8.864,34.472c6.473,0,7.879-5.628,7.879-24.623h25.326v7.457c0,28.14-16.462,34.894-33.206,34.894
			c-29.406,0-35.878-14.773-35.878-52.2c0-38.411,8.723-52.2,35.878-52.2c23.638,0,32.502,12.382,32.502,31.799v6.332h-25.327
			V122.289z"/>
		<path fill="#0070EA" d="M224.416,91.756h25.326v100.461h-25.326V91.756z"/>
		<path fill="#0070EA" d="M297.299,192.217c-0.844-2.673-1.125-5.487-1.547-8.583h-0.283c-2.813,6.754-9.566,10.553-17.164,10.553
			c-15.196,0-21.106-9.286-21.106-22.371c0-14.07,4.925-20.684,21.106-24.482l9.988-2.392c5.488-1.267,7.459-3.659,7.459-8.302
			s-2.111-7.035-6.473-7.035c-4.785,0-7.035,2.111-7.176,10.131h-21.95c0-21.809,17.588-25.608,29.126-25.608
			c17.729,0,30.109,4.643,30.109,24.482v37.146c0,7.035,0.281,12.522,2.393,16.462H297.299z M295.752,164.64v-9.146h-0.283
			c-1.406,1.97-4.924,1.829-8.582,3.518c-3.939,1.829-5.205,4.784-5.205,9.849s2.391,8.302,6.189,8.302
			C293.5,177.163,295.752,172.941,295.752,164.64z"/>
		<path fill="#0070EA" d="M350.203,168.58c0,2.955,0.563,5.769,1.828,7.457s3.096,2.674,5.348,2.674
			c3.939,0,7.316-2.393,7.316-6.473c0-13.507-36.725-5.487-36.725-34.331c0-13.367,9.709-23.779,30.252-23.779
			c18.994,0,28.563,8.02,28.563,23.919h-21.949c0-6.472-2.533-8.442-6.754-8.442c-3.799,0-6.473,2.251-6.473,5.91
			c0,12.522,36.723,4.081,36.723,33.206c0,14.773-11.396,25.467-30.531,25.467c-21.246,0-29.83-9.005-29.83-25.607H350.203z"/>
		<path fill="#0070EA" d="M415.348,168.58c0,2.955,0.563,5.769,1.828,7.457s3.096,2.674,5.348,2.674
			c3.939,0,7.316-2.393,7.316-6.473c0-13.507-36.725-5.487-36.725-34.331c0-13.367,9.709-23.779,30.252-23.779
			c18.994,0,28.563,8.02,28.563,23.919H429.98c0-6.472-2.533-8.442-6.754-8.442c-3.799,0-6.473,2.251-6.473,5.91
			c0,12.522,36.723,4.081,36.723,33.206c0,14.773-11.396,25.467-30.531,25.467c-21.246,0-29.83-9.005-29.83-25.607H415.348z"/>
	</g>
	<path d="M648.25,183.521v-57.56h38.374v57.56h47.966v-76.747h28.78l-95.933-86.339l-95.934,86.339h28.78v76.747H648.25z"/>
</g>
</svg>
